HIERARCHY
ROOT Hips
{
	OFFSET 0.00000 0.00000 0.00000
	CHANNELS 6 Xposition Yposition Zposition Zrotation Yrotation Xrotation 
	JOINT LHipJoint
	{
		OFFSET 0 0 0
		CHANNELS 3 Zrotation Yrotation Xrotation
		JOINT LeftUpLeg
		{
			OFFSET 1.28858 -1.83292 1.03970
			CHANNELS 3 Zrotation Yrotation Xrotation
			JOINT LeftLeg
			{
				OFFSET 2.47846 -6.80952 0.00000
				CHANNELS 3 Zrotation Yrotation Xrotation
				JOINT LeftFoot
				{
					OFFSET 2.75274 -7.56311 0.00000
					CHANNELS 3 Zrotation Yrotation Xrotation
					JOINT LeftToeBase
					{
						OFFSET 0.12848 -0.35301 1.68223
						CHANNELS 3 Zrotation Yrotation Xrotation
						End Site
						{
							OFFSET 0.00000 -0.00000 0.87311
						}
					}
				}
			}
		}
	}
	JOINT RHipJoint
	{
		OFFSET 0 0 0
		CHANNELS 3 Zrotation Yrotation Xrotation
		JOINT RightUpLeg
		{
			OFFSET -1.31183 -1.83292 1.03970
			CHANNELS 3 Zrotation Yrotation Xrotation
			JOINT RightLeg
			{
				OFFSET -2.44740 -6.72417 0.00000
				CHANNELS 3 Zrotation Yrotation Xrotation
				JOINT RightFoot
				{
					OFFSET -2.67343 -7.34519 0.00000
					CHANNELS 3 Zrotation Yrotation Xrotation
					JOINT RightToeBase
					{
						OFFSET -0.16914 -0.46471 1.77626
						CHANNELS 3 Zrotation Yrotation Xrotation
						End Site
						{
							OFFSET -0.00000 -0.00000 0.92777
						}
					}
				}
			}
		}
	}
	JOINT LowerBack
	{
		OFFSET 0 0 0
		CHANNELS 3 Zrotation Yrotation Xrotation
		JOINT Spine
		{
			OFFSET 0.01249 2.14252 0.03842
			CHANNELS 3 Zrotation Yrotation Xrotation
			JOINT Spine1
			{
				OFFSET -0.02957 2.14199 -0.03751
				CHANNELS 3 Zrotation Yrotation Xrotation
				JOINT Neck
				{
					OFFSET 0 0 0
					CHANNELS 3 Zrotation Yrotation Xrotation
					JOINT Neck1
					{
						OFFSET -0.01678 1.65709 -0.05476
						CHANNELS 3 Zrotation Yrotation Xrotation
						JOINT Head
						{
							OFFSET 0.07912 1.58331 -0.11843
							CHANNELS 3 Zrotation Yrotation Xrotation
							End Site
							{
								OFFSET 0.03298 1.73940 -0.04271
							}
						}
					}
				}
				JOINT LeftShoulder
				{
					OFFSET 0 0 0
					CHANNELS 3 Zrotation Yrotation Xrotation
					JOINT LeftArm
					{
						OFFSET 3.39556 1.16496 0.08673
						CHANNELS 3 Zrotation Yrotation Xrotation
						JOINT LeftForeArm
						{
							OFFSET 5.23910 -0.00000 -0.00000
							CHANNELS 3 Zrotation Yrotation Xrotation
							JOINT LeftHand
							{
								OFFSET 3.31467 -0.00000 0.00000
								CHANNELS 3 Zrotation Yrotation Xrotation
								JOINT LeftFingerBase
								{
									OFFSET 0 0 0
									CHANNELS 3 Zrotation Yrotation Xrotation
									JOINT LeftHandIndex1
									{
										OFFSET 0.96590 -0.00000 0.00000
										CHANNELS 3 Zrotation Yrotation Xrotation
										End Site
										{
											OFFSET 0.77873 -0.00000 0.00000
										}
									}
								}
								JOINT LThumb
								{
									OFFSET 0 0 0
									CHANNELS 3 Zrotation Yrotation Xrotation
									End Site
									{
										OFFSET 0.79062 -0.00000 0.79062
									}
								}
							}
						}
					}
				}
				JOINT RightShoulder
				{
					OFFSET 0 0 0
					CHANNELS 3 Zrotation Yrotation Xrotation
					JOINT RightArm
					{
						OFFSET -3.27193 1.31331 0.33940
						CHANNELS 3 Zrotation Yrotation Xrotation
						JOINT RightForeArm
						{
							OFFSET -5.30252 -0.00000 0.00000
							CHANNELS 3 Zrotation Yrotation Xrotation
							JOINT RightHand
							{
								OFFSET -3.67875 -0.00000 0.00000
								CHANNELS 3 Zrotation Yrotation Xrotation
								JOINT RightFingerBase
								{
									OFFSET 0 0 0
									CHANNELS 3 Zrotation Yrotation Xrotation
									JOINT RightHandIndex1
									{
										OFFSET -0.59481 -0.00000 0.00000
										CHANNELS 3 Zrotation Yrotation Xrotation
										End Site
										{
											OFFSET -0.47955 -0.00000 0.00000
										}
									}
								}
								JOINT RThumb
								{
									OFFSET 0 0 0
									CHANNELS 3 Zrotation Yrotation Xrotation
									End Site
									{
										OFFSET -0.48687 -0.00000 0.48687
									}
								}
							}
						}
					}
				}
			}
		}
	}
}
MOTION
Frames: 11
Frame Time: 0.00749064
0.00 0.00 0.00 0 0 0 0 0 0 -21 0 0 0 0 0 0 0 0 0 0 0 0 0 0 21 0 0 0 0 0 0 0 0 0 0 0 0 0 0 0 0 0 0 0 0 0 0 -16 0 0 21 0 0 11 0 0 0 -8 0 0 0 0 0 0 0 0 0 0 0 0 0 0 0 0 0 0 0 0 8 0 0 0 0 0 0 0 0 0 0 0 0 0 0 0 0 0
0.00 0.00 0.00 1.9226 4.4379 4.4275 0.0000 0.0000 0.0000 -17.8790 -6.0375 -11.1327 1.3501 7.3558 20.7738 -0.2847 -11.7715 -3.2429 1.9646 8.7919 25.1464 0.0000 0.0000 0.0000 20.5652 1.1941 0.7563 -0.0711 -1.7207 4.7343 -0.8172 -12.1231 -25.4225 -0.1037 -2.0768 5.7178 0.1117 1.3059 1.9759 -1.6091 1.8036 5.1715 -1.6899 0.9441 4.2780 1.3690 1.6448 2.1557 0.2775 2.2843 -6.0186 -0.2042 1.1030 -2.2420 0.0000 -0.0000 0.0000 -80.7794 -2.0977 41.6051 16.1013 -25.6578 -3.6897 -0.0000 0.0000 -23.5373 -7.0613 -16.1886 1.9779 -7.1250 0.0000 -0.0000 -22.8083 14.4403 17.9061 0.0000 -0.0000 0.0000 81.4940 -6.0586 50.0678 -18.7601 29.1195 -4.9135 0.0000 -0.0000 -10.8662 13.2541 -27.0668 -6.1176 7.1250 -0.0000 -0.0000 43.2051 -51.7648 -8.5287
0.00 0.00 0.00 -2.4854 3.6389 9.9040 0.0000 0.0000 0.0000 -11.7988 -12.7285 -25.7536 3.3093 11.1796 32.8880 0.2394 -10.3492 -10.6236 1.4565 7.6280 21.5896 0.0000 0.0000 0.0000 24.5317 1.2540 -15.1670 -1.2803 -7.1705 20.2216 -1.5679 -4.9733 -25.8929 -0.0094 -0.6274 1.7242 -1.2455 1.8383 12.4128 -1.9593 2.3382 9.1519 -1.5699 1.1785 2.6885 -0.1697 1.8424 2.0325 0.8848 2.6664 -14.9073 0.1725 1.2916 -4.8176 0.0000 0.0000 0.0000 -75.2885 -12.8449 38.2891 15.3602 -24.6454 -3.3747 -0.0000 0.0000 -21.2714 -10.0560 -15.2185 2.6652 -7.1250 0.0000 -0.0000 -24.7609 15.3050 19.2657 0.0000 0.0000 0.0000 79.5582 2.8426 47.2119 -21.1100 31.9566 -6.1081 0.0000 -0.0000 -8.8430 20.7794 -31.0638 -11.0781 7.1250 -0.0000 -0.0000 52.9085 -53.3087 -13.8540
0.00 0.00 0.00 -2.1247 2.4983 11.3143 0.0000 0.0000 0.0000 -12.5379 -12.9049 -28.8722 4.1521 12.3600 37.0179 0.3198 -11.9060 -12.2592 1.4277 7.5555 21.3719 0.0000 0.0000 0.0000 22.2735 3.7770 -25.5505 -4.0865 -12.2746 36.7105 -1.4059 -4.4582 -24.3957 -0.1019 2.0587 -5.6679 -1.8414 1.7293 16.0090 -2.8921 2.0406 10.4039 -2.2825 1.0346 2.1520 0.4764 2.1032 2.6636 -1.6481 2.7207 -15.5920 -0.7325 1.4376 -5.0891 0.0000 0.0000 0.0000 -74.1617 -22.4699 43.3360 11.6539 -19.2835 -1.9865 -0.0000 0.0000 -16.3514 -4.5615 -12.6455 1.0006 -7.1250 0.0000 -0.0000 -21.6827 17.7366 15.1768 0.0000 0.0000 0.0000 80.8940 10.2612 44.0563 -19.6847 30.2606 -5.3716 0.0000 -0.0000 -5.0256 12.7418 -31.2433 -6.6894 7.1250 -0.0000 -0.0000 46.3731 -55.0048 -13.5277
0.00 0.00 0.00 3.9550 10.2628 15.8164 0.0000 0.0000 0.0000 -18.1439 -17.3781 -38.5759 7.0769 15.3963 49.1646 -0.8643 -20.9970 -6.6024 3.3151 11.1885 32.9184 0.0000 0.0000 0.0000 8.3254 13.6705 -43.1415 -5.9412 -14.3712 44.7455 -1.6252 -4.5655 -26.0906 -0.0035 -0.3807 1.0462 -0.2313 -1.0447 26.2010 -0.3437 -1.1506 16.5934 0.0125 -0.4842 4.0329 -1.5902 0.2352 -3.2148 1.8957 0.3178 3.1496 0.8661 0.1765 1.5145 0.0000 -0.0000 0.0000 -77.0569 -53.4938 68.8942 14.2454 -23.0844 -2.9236 -0.0000 0.0000 -16.7759 5.6429 -10.9411 -1.0744 -7.1250 0.0000 -0.0000 -15.0353 19.1722 9.5979 0.0000 -0.0000 0.0000 73.1751 40.5578 42.4881 -16.8018 26.5957 -3.9982 0.0000 -0.0000 -7.7671 -4.7407 -30.6988 2.4244 7.1250 -0.0000 -0.0000 29.7135 -58.1933 -10.1710
0.00 0.00 0.00 7.6842 11.5256 19.0839 0.0000 0.0000 0.0000 -19.4925 -16.0303 -50.6131 11.8012 18.3054 65.3574 -1.0048 -17.4164 6.1689 4.7529 13.1001 39.7442 0.0000 0.0000 0.0000 3.3280 12.7946 -51.0014 -8.9808 -16.7954 56.0239 -2.5426 -2.3403 -31.0535 -0.0006 0.1642 -0.4511 2.6950 -1.0486 28.9255 0.8893 -0.4143 17.0385 -0.4417 0.0798 3.3384 -1.0148 -0.9316 -2.7887 0.5764 -1.2176 1.2214 0.3246 -0.6072 0.8427 -0.0000 0.0000 0.0000 -93.0206 -63.3613 83.6647 14.7342 -23.7745 -3.1180 -0.0000 0.0000 -16.6828 4.3281 -11.3106 -0.8504 -7.1250 0.0000 -0.0000 -15.9078 18.8557 10.3168 -0.0000 0.0000 0.0000 63.5574 50.7776 40.1792 -12.5529 20.6286 -2.2934 0.0000 -0.0000 -6.8737 -6.7732 -31.9026 3.5915 7.1250 -0.0000 -0.0000 28.7455 -59.6874 -10.8487
0.00 0.00 0.00 12.1264 13.5853 27.0519 0.0000 0.0000 0.0000 -20.8117 -18.5379 -75.1410 11.2028 18.0329 63.4385 -0.5206 -15.0331 14.2344 3.3317 11.2135 33.0034 0.0000 0.0000 0.0000 -3.1326 11.7678 -62.2366 -13.0932 -18.8155 69.4147 -4.0715 -2.9358 -39.3009 -0.0937 1.9739 -5.4336 4.4603 -1.8735 33.8248 2.5454 -0.5733 17.9040 0.4843 0.0913 2.3969 -1.1842 -2.2748 -1.1633 2.6369 -2.9744 -4.0230 1.0220 -1.5087 -0.9822 0.0000 0.0000 0.0000 -124.6715 -75.1996 116.2456 23.0541 -34.1480 -7.1687 -0.0000 0.0000 -17.7595 -8.4566 -15.5074 2.2763 -7.1250 0.0000 -0.0000 -23.7496 15.0632 18.4459 0.0000 0.0000 0.0000 40.6106 62.5597 23.8408 -15.5620 24.9232 -3.4593 0.0000 -0.0000 -2.9038 -9.9431 -29.8592 4.9880 7.1250 -0.0000 -0.0000 23.8237 -58.5903 -8.2136
0.00 0.00 0.00 1.3248 2.3909 18.0196 0.0000 0.0000 0.0000 -16.0811 -12.0075 -47.9835 3.6779 11.7190 34.7451 -0.0121 -2.8889 3.3174 2.0850 9.0410 25.9235 0.0000 0.0000 0.0000 11.4544 5.9563 -31.6637 -9.4851 -17.1100 57.7532 -1.9707 4.3827 -25.5288 -0.3065 3.5593 -9.8399 0.3854 1.1503 25.9259 -1.0195 1.5476 14.6993 -1.6809 0.8698 2.0129 -1.4614 0.6702 4.4959 -1.1092 0.5717 -25.5125 -0.1815 0.5626 -8.6700 0.0000 -0.0000 0.0000 -60.9360 -50.0437 56.9482 14.1947 -23.0124 -2.9038 -0.0000 0.0000 -19.6586 0.5835 -10.6060 -0.1074 -7.1250 0.0000 -0.0000 -18.5254 19.6115 11.8636 0.0000 -0.0000 0.0000 72.8844 34.6379 36.9509 -15.1166 24.3083 -3.2738 0.0000 -0.0000 -10.5867 -8.9433 -29.5945 4.4440 7.1250 -0.0000 -0.0000 24.6323 -58.1325 -8.2393
0.00 0.00 0.00 0.4811 -0.4411 11.7999 0.0000 0.0000 0.0000 -14.6337 -8.6191 -39.7206 2.2925 9.4504 27.2146 0.0279 1.9752 3.0715 2.5509 9.9299 28.7499 0.0000 0.0000 0.0000 13.4072 -3.0569 -15.4162 -5.4434 -13.8664 42.7050 -1.4089 7.1357 -21.2314 -0.1089 2.1280 -5.8595 -0.3410 2.1708 17.5494 -2.4160 2.7472 10.4650 -2.7863 1.4379 1.4859 -1.4189 2.0911 2.9129 -2.2261 2.3944 -24.0650 -0.6839 1.5271 -7.8761 -0.0000 0.0000 0.0000 -64.6995 -27.1268 47.5837 12.0167 -19.8297 -2.1080 -0.0000 0.0000 -20.0254 0.6399 -13.2638 -0.1468 -7.1250 0.0000 -0.0000 -18.2138 17.0880 12.7214 -0.0000 0.0000 0.0000 79.7489 15.9218 36.7773 -14.7658 23.8188 -3.1307 0.0000 -0.0000 -8.9166 -9.3293 -28.3556 4.4614 7.1250 -0.0000 -0.0000 23.3295 -57.0914 -7.1764
0.00 0.00 0.00 0.9147 -1.8269 4.5091 0.0000 0.0000 0.0000 -13.7724 -5.3539 -32.5584 1.3531 7.3637 20.7973 -0.0307 7.5392 4.5697 2.7644 10.3036 29.9655 0.0000 0.0000 0.0000 14.1243 -4.3525 -1.2104 -2.1800 -9.2314 26.5218 -1.8766 8.4977 -24.5651 -0.0884 1.9173 -5.2770 0.0232 2.6014 13.4319 -2.5013 3.4226 9.0439 -3.0056 1.7903 2.1674 0.4549 1.9664 1.7308 -3.1448 2.2564 -19.4449 -1.2064 1.3259 -6.1194 0.0000 0.0000 0.0000 -68.7217 -14.8784 42.2829 12.0612 -19.8964 -2.1231 -0.0000 0.0000 -15.0780 2.9978 -13.1813 -0.6842 -7.1250 0.0000 -0.0000 -16.6539 17.0990 11.5214 0.0000 0.0000 0.0000 82.5371 9.8542 34.2642 -14.8231 23.8992 -3.1539 0.0000 -0.0000 -6.7193 -7.3454 -28.6446 3.5361 7.1250 -0.0000 -0.0000 25.5131 -56.9412 -7.8128
0.00 0.00 0.00 0.7962 0.2854 0.6201 0.0000 0.0000 0.0000 -12.5892 -3.4617 -25.7893 6.7618 15.1280 47.9677 -0.1964 -9.7162 -2.5851 0.9292 6.1406 17.1930 0.0000 0.0000 0.0000 18.9891 2.1449 4.5469 -0.2842 -3.4283 9.4735 -1.3140 -5.2538 -24.1243 -0.0288 -1.0962 3.0135 2.6809 1.2598 2.4744 -1.3430 1.7249 4.2447 -2.8796 0.9702 3.1047 0.8477 1.7003 0.5321 -3.8887 2.0966 -5.8812 -1.4060 1.1154 -1.8779 -0.0000 0.0000 0.0000 -82.2672 -2.7761 33.2429 9.4243 -15.8341 -1.3135 -0.0000 0.0000 -7.4492 -7.5252 -10.9521 1.4377 -7.1250 0.0000 -0.0000 -23.8348 19.2832 16.0694 -0.0000 0.0000 0.0000 82.4216 -0.7641 33.1741 -14.2551 23.0982 -2.9274 0.0000 -0.0000 -3.2740 -5.8490 -29.7217 2.9075 7.1250 -0.0000 -0.0000 27.8171 -57.5824 -9.0341
